<?xml version="1.0" encoding="utf-8"?>
<svg version="1.1" xmlns:xlink="http://www.w3.org/1999/xlink" width="940px" height="338px" xmlns="http://www.w3.org/2000/svg">
  <defs>
    <filter x="513px" y="580px" width="940px" height="338px" filterUnits="userSpaceOnUse" id="filter1270">
      <feOffset dx="5" dy="5" in="SourceAlpha" result="shadowOffsetInner" />
      <feGaussianBlur stdDeviation="2.5" in="shadowOffsetInner" result="shadowGaussian" />
      <feComposite in2="shadowGaussian" operator="atop" in="SourceAlpha" result="shadowComposite" />
      <feColorMatrix type="matrix" values="0 0 0 0 0.788235294117647  0 0 0 0 0.815686274509804  0 0 0 0 0.83921568627451  0 0 0 0.996078431372549 0  " in="shadowComposite" />
    </filter>
    <g id="widget1271">
      <path d="M 513.5 596  A 15.5 15.5 0 0 1 529 580.5 L 1427 580.5  A 15.5 15.5 0 0 1 1442.5 596 L 1442.5 892  A 15.5 15.5 0 0 1 1427 907.5 L 529 907.5  A 15.5 15.5 0 0 1 513.5 892 L 513.5 596  Z " fill-rule="nonzero" fill="#ffffff" stroke="none" fill-opacity="0" />
      <path d="M 513.5 596  A 15.5 15.5 0 0 1 529 580.5 L 1427 580.5  A 15.5 15.5 0 0 1 1442.5 596 L 1442.5 892  A 15.5 15.5 0 0 1 1427 907.5 L 529 907.5  A 15.5 15.5 0 0 1 513.5 892 L 513.5 596  Z " stroke-width="1" stroke="#b9b9b5" fill="none" />
    </g>
  </defs>
  <g transform="matrix(1 0 0 1 -513 -580 )">
    <use xlink:href="#widget1271" filter="url(#filter1270)" />
    <use xlink:href="#widget1271" />
  </g>
</svg>