<?xml version="1.0" encoding="utf-8"?>
<svg version="1.1" xmlns:xlink="http://www.w3.org/1999/xlink" width="43px" height="43px" xmlns="http://www.w3.org/2000/svg">
  <g transform="matrix(1 0 0 1 -1279 -73 )">
    <path d="M 1280.5 94.5  A 20 20 0 0 1 1300.5 74.5 A 20 20 0 0 1 1320.5 94.5 A 20 20 0 0 1 1300.5 114.5 A 20 20 0 0 1 1280.5 94.5 Z " fill-rule="nonzero" fill="#696941" stroke="none" />
    <path d="M 1280 94.5  A 20.5 20.5 0 0 1 1300.5 74 A 20.5 20.5 0 0 1 1321 94.5 A 20.5 20.5 0 0 1 1300.5 115 A 20.5 20.5 0 0 1 1280 94.5 Z " stroke-width="2" stroke="#b0b081" fill="none" />
  </g>
</svg>