<?xml version="1.0" encoding="utf-8"?>
<svg version="1.1" xmlns:xlink="http://www.w3.org/1999/xlink" width="43px" height="43px" xmlns="http://www.w3.org/2000/svg">
  <g transform="matrix(1 0 0 1 -1279 -28 )">
    <path d="M 1281 49.5  A 19.5 19.5 0 0 1 1300.5 30 A 19.5 19.5 0 0 1 1320 49.5 A 19.5 19.5 0 0 1 1300.5 69 A 19.5 19.5 0 0 1 1281 49.5 Z " fill-rule="nonzero" fill="#0a6ed1" stroke="none" fill-opacity="0.498039215686275" />
    <path d="M 1280 49.5  A 20.5 20.5 0 0 1 1300.5 29 A 20.5 20.5 0 0 1 1321 49.5 A 20.5 20.5 0 0 1 1300.5 70 A 20.5 20.5 0 0 1 1280 49.5 Z " stroke-width="2" stroke="#0854a0" fill="none" stroke-opacity="0.498039215686275" />
  </g>
</svg>