<?xml version="1.0" encoding="utf-8"?>
<svg version="1.1" xmlns:xlink="http://www.w3.org/1999/xlink" width="25px" height="25px" xmlns="http://www.w3.org/2000/svg">
  <g transform="matrix(1 0 0 1 -1205 -694 )">
    <path d="M 1205.5 706.5  A 12 12 0 0 1 1217.5 694.5 A 12 12 0 0 1 1229.5 706.5 A 12 12 0 0 1 1217.5 718.5 A 12 12 0 0 1 1205.5 706.5 Z " fill-rule="nonzero" fill="#d3d4b2" stroke="none" />
    <path d="M 1205.5 706.5  A 12 12 0 0 1 1217.5 694.5 A 12 12 0 0 1 1229.5 706.5 A 12 12 0 0 1 1217.5 718.5 A 12 12 0 0 1 1205.5 706.5 Z " stroke-width="1" stroke="#696941" fill="none" />
  </g>
</svg>