<?xml version="1.0" encoding="utf-8"?>
<svg version="1.1" xmlns:xlink="http://www.w3.org/1999/xlink" width="25px" height="25px" xmlns="http://www.w3.org/2000/svg">
  <g transform="matrix(1 0 0 1 -1205 -694 )">
    <path d="M 1206 706.5  A 11.5 11.5 0 0 1 1217.5 695 A 11.5 11.5 0 0 1 1229 706.5 A 11.5 11.5 0 0 1 1217.5 718 A 11.5 11.5 0 0 1 1206 706.5 Z " fill-rule="nonzero" fill="#0a6ed1" stroke="none" fill-opacity="0.498039215686275" />
    <path d="M 1205.5 706.5  A 12 12 0 0 1 1217.5 694.5 A 12 12 0 0 1 1229.5 706.5 A 12 12 0 0 1 1217.5 718.5 A 12 12 0 0 1 1205.5 706.5 Z " stroke-width="1" stroke="#0854a0" fill="none" stroke-opacity="0.498039215686275" />
  </g>
</svg>