<?xml version="1.0" encoding="utf-8"?>
<svg version="1.1" xmlns:xlink="http://www.w3.org/1999/xlink" width="150px" height="60px" xmlns="http://www.w3.org/2000/svg">
  <defs>
    <filter x="1287px" y="176px" width="150px" height="60px" filterUnits="userSpaceOnUse" id="filter1276">
      <feOffset dx="5" dy="5" in="SourceAlpha" result="shadowOffsetInner" />
      <feGaussianBlur stdDeviation="2.5" in="shadowOffsetInner" result="shadowGaussian" />
      <feComposite in2="shadowGaussian" operator="atop" in="SourceAlpha" result="shadowComposite" />
      <feColorMatrix type="matrix" values="0 0 0 0 0  0 0 0 0 0  0 0 0 0 0  0 0 0 0.349019607843137 0  " in="shadowComposite" />
    </filter>
    <g id="widget1277">
      <path d="M 1288 196  A 19 19 0 0 1 1307 177 L 1407 177  A 19 19 0 0 1 1426 196 L 1426 206  A 19 19 0 0 1 1407 225 L 1307 225  A 19 19 0 0 1 1288 206 L 1288 196  Z " fill-rule="nonzero" fill="#0a6ed1" stroke="none" fill-opacity="0.498039215686275" />
      <path d="M 1287.5 196  A 19.5 19.5 0 0 1 1307 176.5 L 1407 176.5  A 19.5 19.5 0 0 1 1426.5 196 L 1426.5 206  A 19.5 19.5 0 0 1 1407 225.5 L 1307 225.5  A 19.5 19.5 0 0 1 1287.5 206 L 1287.5 196  Z " stroke-width="1" stroke="#0854a0" fill="none" stroke-opacity="0.498039215686275" />
    </g>
  </defs>
  <g transform="matrix(1 0 0 1 -1287 -176 )">
    <use xlink:href="#widget1277" filter="url(#filter1276)" />
    <use xlink:href="#widget1277" />
  </g>
</svg>