<?xml version="1.0" encoding="utf-8"?>
<svg version="1.1" xmlns:xlink="http://www.w3.org/1999/xlink" width="93px" height="21px" xmlns="http://www.w3.org/2000/svg">
  <g transform="matrix(1 0 0 1 -649 -868 )">
    <path d="M 650 878.5  A 9.5 9.5 0 0 1 659.5 869 L 731.5 869  A 9.5 9.5 0 0 1 741 878.5 A 9.5 9.5 0 0 1 731.5 888 L 659.5 888  A 9.5 9.5 0 0 1 650 878.5 Z " fill-rule="nonzero" fill="#ffffff" stroke="none" fill-opacity="0.498039215686275" />
    <path d="M 649.5 878.5  A 10 10 0 0 1 659.5 868.5 L 731.5 868.5  A 10 10 0 0 1 741.5 878.5 A 10 10 0 0 1 731.5 888.5 L 659.5 888.5  A 10 10 0 0 1 649.5 878.5 Z " stroke-width="1" stroke="#0854a0" fill="none" stroke-opacity="0.498039215686275" />
  </g>
</svg>