<?xml version="1.0" encoding="utf-8"?>
<svg version="1.1" xmlns:xlink="http://www.w3.org/1999/xlink" width="11px" height="11px" xmlns="http://www.w3.org/2000/svg">
  <g transform="matrix(1 0 0 1 -659 -873 )">
    <path d="M 660 878.5  A 4.5 4.5 0 0 1 664.5 874 A 4.5 4.5 0 0 1 669 878.5 A 4.5 4.5 0 0 1 664.5 883 A 4.5 4.5 0 0 1 660 878.5 Z " fill-rule="nonzero" fill="#ffffff" stroke="none" fill-opacity="0.498039215686275" />
    <path d="M 659.5 878.5  A 5 5 0 0 1 664.5 873.5 A 5 5 0 0 1 669.5 878.5 A 5 5 0 0 1 664.5 883.5 A 5 5 0 0 1 659.5 878.5 Z " stroke-width="1" stroke="#0854a0" fill="none" stroke-opacity="0.498039215686275" />
  </g>
</svg>