<?xml version="1.0" encoding="utf-8"?>
<svg version="1.1" xmlns:xlink="http://www.w3.org/1999/xlink" width="11px" height="11px" xmlns="http://www.w3.org/2000/svg">
  <g transform="matrix(1 0 0 1 -690 -873 )">
    <path d="M 690.5 878.5  A 5 5 0 0 1 695.5 873.5 A 5 5 0 0 1 700.5 878.5 A 5 5 0 0 1 695.5 883.5 A 5 5 0 0 1 690.5 878.5 Z " fill-rule="nonzero" fill="#f5f5ef" stroke="none" fill-opacity="0" />
    <path d="M 690.5 878.5  A 5 5 0 0 1 695.5 873.5 A 5 5 0 0 1 700.5 878.5 A 5 5 0 0 1 695.5 883.5 A 5 5 0 0 1 690.5 878.5 Z " stroke-width="1" stroke="#b0b081" fill="none" />
  </g>
</svg>