<?xml version="1.0" encoding="utf-8"?>
<svg version="1.1" xmlns:xlink="http://www.w3.org/1999/xlink" width="992px" height="334px" xmlns="http://www.w3.org/2000/svg">
  <defs>
    <filter x="392px" y="25px" width="992px" height="334px" filterUnits="userSpaceOnUse" id="filter1290">
      <feOffset dx="5" dy="5" in="SourceAlpha" result="shadowOffsetInner" />
      <feGaussianBlur stdDeviation="2.5" in="shadowOffsetInner" result="shadowGaussian" />
      <feComposite in2="shadowGaussian" operator="atop" in="SourceAlpha" result="shadowComposite" />
      <feColorMatrix type="matrix" values="0 0 0 0 0.788235294117647  0 0 0 0 0.815686274509804  0 0 0 0 0.83921568627451  0 0 0 0.996078431372549 0  " in="shadowComposite" />
    </filter>
    <g id="widget1291">
      <path d="M 392.5 41  A 15.5 15.5 0 0 1 408 25.5 L 1358 25.5  A 15.5 15.5 0 0 1 1373.5 41 L 1373.5 333  A 15.5 15.5 0 0 1 1358 348.5 L 408 348.5  A 15.5 15.5 0 0 1 392.5 333 L 392.5 41  Z " fill-rule="nonzero" fill="#ffffff" stroke="none" fill-opacity="0" />
      <path d="M 392.5 41  A 15.5 15.5 0 0 1 408 25.5 L 1358 25.5  A 15.5 15.5 0 0 1 1373.5 41 L 1373.5 333  A 15.5 15.5 0 0 1 1358 348.5 L 408 348.5  A 15.5 15.5 0 0 1 392.5 333 L 392.5 41  Z " stroke-width="1" stroke="#b9b9b5" fill="none" />
    </g>
  </defs>
  <g transform="matrix(1 0 0 1 -392 -25 )">
    <use xlink:href="#widget1291" filter="url(#filter1290)" />
    <use xlink:href="#widget1291" />
  </g>
</svg>