<?xml version="1.0" encoding="utf-8"?>
<svg version="1.1" xmlns:xlink="http://www.w3.org/1999/xlink" width="382px" height="248px" xmlns="http://www.w3.org/2000/svg">
  <defs>
    <filter x="0px" y="717px" width="382px" height="248px" filterUnits="userSpaceOnUse" id="filter1282">
      <feOffset dx="5" dy="5" in="SourceAlpha" result="shadowOffsetInner" />
      <feGaussianBlur stdDeviation="2.5" in="shadowOffsetInner" result="shadowGaussian" />
      <feComposite in2="shadowGaussian" operator="atop" in="SourceAlpha" result="shadowComposite" />
      <feColorMatrix type="matrix" values="0 0 0 0 0.788235294117647  0 0 0 0 0.815686274509804  0 0 0 0 0.83921568627451  0 0 0 0.996078431372549 0  " in="shadowComposite" />
    </filter>
    <g id="widget1283">
      <path d="M 0.5 733  A 15.5 15.5 0 0 1 16 717.5 L 356 717.5  A 15.5 15.5 0 0 1 371.5 733 L 371.5 939  A 15.5 15.5 0 0 1 356 954.5 L 16 954.5  A 15.5 15.5 0 0 1 0.5 939 L 0.5 733  Z " fill-rule="nonzero" fill="#ffffff" stroke="none" fill-opacity="0" />
      <path d="M 0.5 733  A 15.5 15.5 0 0 1 16 717.5 L 356 717.5  A 15.5 15.5 0 0 1 371.5 733 L 371.5 939  A 15.5 15.5 0 0 1 356 954.5 L 16 954.5  A 15.5 15.5 0 0 1 0.5 939 L 0.5 733  Z " stroke-width="1" stroke="#b9b9b5" fill="none" />
    </g>
  </defs>
  <g transform="matrix(1 0 0 1 0 -717 )">
    <use xlink:href="#widget1283" filter="url(#filter1282)" />
    <use xlink:href="#widget1283" />
  </g>
</svg>