<?xml version="1.0" encoding="utf-8"?>
<svg version="1.1" xmlns:xlink="http://www.w3.org/1999/xlink" width="680px" height="361px" xmlns="http://www.w3.org/2000/svg">
  <defs>
    <filter x="0px" y="989px" width="680px" height="361px" filterUnits="userSpaceOnUse" id="filter1286">
      <feOffset dx="5" dy="5" in="SourceAlpha" result="shadowOffsetInner" />
      <feGaussianBlur stdDeviation="2.5" in="shadowOffsetInner" result="shadowGaussian" />
      <feComposite in2="shadowGaussian" operator="atop" in="SourceAlpha" result="shadowComposite" />
      <feColorMatrix type="matrix" values="0 0 0 0 0.788235294117647  0 0 0 0 0.815686274509804  0 0 0 0 0.83921568627451  0 0 0 0.996078431372549 0  " in="shadowComposite" />
    </filter>
    <g id="widget1287">
      <path d="M 0.5 1005  A 15.5 15.5 0 0 1 16 989.5 L 654 989.5  A 15.5 15.5 0 0 1 669.5 1005 L 669.5 1324  A 15.5 15.5 0 0 1 654 1339.5 L 16 1339.5  A 15.5 15.5 0 0 1 0.5 1324 L 0.5 1005  Z " fill-rule="nonzero" fill="#ffffff" stroke="none" fill-opacity="0" />
      <path d="M 0.5 1005  A 15.5 15.5 0 0 1 16 989.5 L 654 989.5  A 15.5 15.5 0 0 1 669.5 1005 L 669.5 1324  A 15.5 15.5 0 0 1 654 1339.5 L 16 1339.5  A 15.5 15.5 0 0 1 0.5 1324 L 0.5 1005  Z " stroke-width="1" stroke="#b9b9b5" fill="none" />
    </g>
  </defs>
  <g transform="matrix(1 0 0 1 0 -989 )">
    <use xlink:href="#widget1287" filter="url(#filter1286)" />
    <use xlink:href="#widget1287" />
  </g>
</svg>