<?xml version="1.0" encoding="utf-8"?>
<svg version="1.1" xmlns:xlink="http://www.w3.org/1999/xlink" width="1384px" height="235px" xmlns="http://www.w3.org/2000/svg">
  <defs>
    <filter x="0px" y="383px" width="1384px" height="235px" filterUnits="userSpaceOnUse" id="filter1280">
      <feOffset dx="5" dy="5" in="SourceAlpha" result="shadowOffsetInner" />
      <feGaussianBlur stdDeviation="2.5" in="shadowOffsetInner" result="shadowGaussian" />
      <feComposite in2="shadowGaussian" operator="atop" in="SourceAlpha" result="shadowComposite" />
      <feColorMatrix type="matrix" values="0 0 0 0 0.788235294117647  0 0 0 0 0.815686274509804  0 0 0 0 0.83921568627451  0 0 0 0.996078431372549 0  " in="shadowComposite" />
    </filter>
    <g id="widget1281">
      <path d="M 0.5 399  A 15.5 15.5 0 0 1 16 383.5 L 1358 383.5  A 15.5 15.5 0 0 1 1373.5 399 L 1373.5 592  A 15.5 15.5 0 0 1 1358 607.5 L 16 607.5  A 15.5 15.5 0 0 1 0.5 592 L 0.5 399  Z " fill-rule="nonzero" fill="#ffffff" stroke="none" fill-opacity="0" />
      <path d="M 0.5 399  A 15.5 15.5 0 0 1 16 383.5 L 1358 383.5  A 15.5 15.5 0 0 1 1373.5 399 L 1373.5 592  A 15.5 15.5 0 0 1 1358 607.5 L 16 607.5  A 15.5 15.5 0 0 1 0.5 592 L 0.5 399  Z " stroke-width="1" stroke="#b9b9b5" fill="none" />
    </g>
  </defs>
  <g transform="matrix(1 0 0 1 0 -383 )">
    <use xlink:href="#widget1281" filter="url(#filter1280)" />
    <use xlink:href="#widget1281" />
  </g>
</svg>