<?xml version="1.0" encoding="utf-8"?>
<svg version="1.1" xmlns:xlink="http://www.w3.org/1999/xlink" width="368px" height="334px" xmlns="http://www.w3.org/2000/svg">
  <defs>
    <filter x="0px" y="25px" width="368px" height="334px" filterUnits="userSpaceOnUse" id="filter1278">
      <feOffset dx="5" dy="5" in="SourceAlpha" result="shadowOffsetInner" />
      <feGaussianBlur stdDeviation="2.5" in="shadowOffsetInner" result="shadowGaussian" />
      <feComposite in2="shadowGaussian" operator="atop" in="SourceAlpha" result="shadowComposite" />
      <feColorMatrix type="matrix" values="0 0 0 0 0.788235294117647  0 0 0 0 0.815686274509804  0 0 0 0 0.83921568627451  0 0 0 0.996078431372549 0  " in="shadowComposite" />
    </filter>
    <g id="widget1279">
      <path d="M 0.5 41  A 15.5 15.5 0 0 1 16 25.5 L 342 25.5  A 15.5 15.5 0 0 1 357.5 41 L 357.5 333  A 15.5 15.5 0 0 1 342 348.5 L 16 348.5  A 15.5 15.5 0 0 1 0.5 333 L 0.5 41  Z " fill-rule="nonzero" fill="#ffffff" stroke="none" fill-opacity="0" />
      <path d="M 0.5 41  A 15.5 15.5 0 0 1 16 25.5 L 342 25.5  A 15.5 15.5 0 0 1 357.5 41 L 357.5 333  A 15.5 15.5 0 0 1 342 348.5 L 16 348.5  A 15.5 15.5 0 0 1 0.5 333 L 0.5 41  Z " stroke-width="1" stroke="#b9b9b5" fill="none" />
    </g>
  </defs>
  <g transform="matrix(1 0 0 1 0 -25 )">
    <use xlink:href="#widget1279" filter="url(#filter1278)" />
    <use xlink:href="#widget1279" />
  </g>
</svg>