<?xml version="1.0" encoding="utf-8"?>
<svg version="1.1" xmlns:xlink="http://www.w3.org/1999/xlink" width="16px" height="16px" xmlns="http://www.w3.org/2000/svg">
  <g transform="matrix(1 0 0 1 -1093 -220 )">
    <path d="M 2.46875 6.16666666666667  L 2.46875 13.3958333333333  L 4.875 13.3958333333333  L 4.875 6.16666666666667  L 2.46875 6.16666666666667  Z M 4.65625 4.828125  C 4.90625 4.58854166666667  5.03125 4.29166666666667  5.03125 3.9375  C 5.02430555555556 3.57638888888889  4.89930555555556 3.27777777777778  4.65625 3.04166666666667  C 4.41319444444444 2.80555555555556  4.09027777777778 2.6875  3.6875 2.6875  C 3.28472222222222 2.6875  2.95659722222222 2.80555555555556  2.703125 3.04166666666667  C 2.44965277777778 3.27777777777778  2.32291666666667 3.57638888888889  2.32291666666667 3.9375  C 2.32291666666667 4.29166666666667  2.44618055555556 4.58854166666667  2.69270833333333 4.828125  C 2.93923611111111 5.06770833333333  3.26041666666667 5.1875  3.65625 5.1875  L 3.66666666666667 5.1875  C 4.07638888888889 5.1875  4.40625 5.06770833333333  4.65625 4.828125  Z M 11.125 9.53125  L 11.125 13.3958333333333  L 13.53125 13.3958333333333  L 13.53125 9.25  C 13.53125 8.18055555555555  13.2777777777778 7.37152777777778  12.7708333333333 6.82291666666667  C 12.2638888888889 6.27430555555556  11.59375 6  10.7604166666667 6  C 9.81597222222222 6  9.09027777777778 6.40625  8.58333333333333 7.21875  L 8.60416666666667 7.21875  L 8.60416666666667 6.16666666666667  L 6.19791666666667 6.16666666666667  C 6.21875 6.625  6.21875 9.03472222222222  6.19791666666667 13.3958333333333  L 8.60416666666667 13.3958333333333  L 8.60416666666667 9.35416666666667  C 8.60416666666667 9.09027777777778  8.62847222222222 8.89583333333333  8.67708333333333 8.77083333333333  C 8.78125 8.52777777777778  8.9375 8.32118055555555  9.14583333333333 8.15104166666667  C 9.35416666666667 7.98090277777778  9.61111111111111 7.89583333333333  9.91666666666667 7.89583333333333  C 10.7222222222222 7.89583333333333  11.125 8.44097222222222  11.125 9.53125  Z M 15.1197916666667 0.880208333333334  C 15.7065972222222 1.46701388888889  16 2.17361111111111  16 3  L 16 13  C 16 13.8263888888889  15.7065972222222 14.5329861111111  15.1197916666667 15.1197916666667  C 14.5329861111111 15.7065972222222  13.8263888888889 16  13 16  L 3 16  C 2.17361111111111 16  1.46701388888889 15.7065972222222  0.880208333333333 15.1197916666667  C 0.293402777777778 14.5329861111111  0 13.8263888888889  0 13  L 0 3  C 0 2.17361111111111  0.293402777777778 1.46701388888889  0.880208333333333 0.880208333333334  C 1.46701388888889 0.293402777777777  2.17361111111111 0  3 0  L 13 0  C 13.8263888888889 0  14.5329861111111 0.293402777777777  15.1197916666667 0.880208333333334  Z " fill-rule="nonzero" fill="#000000" stroke="none" transform="matrix(1 0 0 1 1093 220 )" />
  </g>
</svg>