<?xml version="1.0" encoding="utf-8"?>
<svg version="1.1" xmlns:xlink="http://www.w3.org/1999/xlink" width="63px" height="63px" xmlns="http://www.w3.org/2000/svg">
  <defs>
    <mask fill="white" id="clip1293">
      <path d="M 62.0000000000001 30.9999999999999  C 62.0000000000001 48.1223333333333  48.1213 61.9999999999999  31.0010333333333 61.9999999999999  C 13.8776666666666 61.9999999999999  0 48.1223333333333  0 30.9999999999999  C 0 13.8776666666665  13.8776666666666 0  31.0010333333333 0  C 48.1213 0  62.0000000000001 13.8776666666665  62.0000000000001 30.9999999999999  Z " fill-rule="evenodd" />
    </mask>
  </defs>
  <g transform="matrix(1 0 0 1 -65 -562 )">
    <path d="M 62.0000000000001 30.9999999999999  C 62.0000000000001 48.1223333333333  48.1213 61.9999999999999  31.0010333333333 61.9999999999999  C 13.8776666666666 61.9999999999999  0 48.1223333333333  0 30.9999999999999  C 0 13.8776666666665  13.8776666666666 0  31.0010333333333 0  C 48.1213 0  62.0000000000001 13.8776666666665  62.0000000000001 30.9999999999999  Z " fill-rule="nonzero" fill="#ffffff" stroke="none" transform="matrix(1 0 0 1 65 562 )" />
    <path d="M 62.0000000000001 30.9999999999999  C 62.0000000000001 48.1223333333333  48.1213 61.9999999999999  31.0010333333333 61.9999999999999  C 13.8776666666666 61.9999999999999  0 48.1223333333333  0 30.9999999999999  C 0 13.8776666666665  13.8776666666666 0  31.0010333333333 0  C 48.1213 0  62.0000000000001 13.8776666666665  62.0000000000001 30.9999999999999  Z " stroke-width="2" stroke="#89919a" fill="none" transform="matrix(1 0 0 1 65 562 )" mask="url(#clip1293)" />
  </g>
</svg>