<?xml version="1.0" encoding="utf-8"?>
<svg version="1.1" xmlns:xlink="http://www.w3.org/1999/xlink" width="62px" height="21px" xmlns="http://www.w3.org/2000/svg">
  <g transform="matrix(1 0 0 1 -664 -868 )">
    <path d="M 664.5 878.5  A 10 10 0 0 1 674.5 868.5 L 715.5 868.5  A 10 10 0 0 1 725.5 878.5 A 10 10 0 0 1 715.5 888.5 L 674.5 888.5  A 10 10 0 0 1 664.5 878.5 Z " fill-rule="nonzero" fill="#696941" stroke="none" />
    <path d="M 664.5 878.5  A 10 10 0 0 1 674.5 868.5 L 715.5 868.5  A 10 10 0 0 1 725.5 878.5 A 10 10 0 0 1 715.5 888.5 L 674.5 888.5  A 10 10 0 0 1 664.5 878.5 Z " stroke-width="1" stroke="#b0b081" fill="none" />
  </g>
</svg>